<svg xmlns="http://www.w3.org/2000/svg" version="1.1" xmlns:xlink="http://www.w3.org/1999/xlink" xmlns:svgjs="http://svgjs.com/svgjs" width="256" height="277" fill="orange">
  <svg id="SvgjsSvg1000" data-name="Layer 1" xmlns="http://www.w3.org/2000/svg" viewBox="0 0 256 256">
    <defs>
      <style>
        .cls-1{font-size:91.78px;stroke-miterlimit:10;stroke-width:3px;font-family:CooperBlack, Cooper Black;}
      </style>
    </defs>
    <title>test</title>
    <path d="M194.7,192.3c-.1,0,1.4,1.7,1.5,1.9s8-5.2,8.8-5.9a5.4,5.4,0,0,0,1.5-1.3c-.1-.1.3-.4.8-.7l.9-.8c-.1-.1.4-.5,1-1s1.1-1,1-1.1.2-.4.6-.6l.8-.7a3.2,3.2,0,0,1,.9-1,3.4,3.4,0,0,0,.9-.9c-.1-.1.1-.3.4-.5a1.2,1.2,0,0,0,.5-.6,3.2,3.2,0,0,1,.9-1c.5-.3.8-.7.7-.8s.1-.3.4-.5a.9.9,0,0,0,.4-.5,4.4,4.4,0,0,1,.8-.9c.4-.3.7-.7.6-.8s.1-.3.4-.4.4-.4.4-.5.2-.4.5-.7.7-.7.6-.8.1-.3.3-.5.5-.3.4-.4.1-.4.4-.7,1.3-1.5,1.2-1.7.2-.4.6-.7.6-.7.5-.8l.3-.4a.5.5,0,0,0,.3-.4c-.1,0,.1-.3.4-.6s.4-.5.3-.6a.5.5,0,0,1,.3-.4c.2-.2.3-.3.2-.4l.4-.7c.3-.2.5-.5.4-.6s0-.3.3-.4.3-.3.2-.4a.9.9,0,0,1,.4-.6,1.3,1.3,0,0,0,.4-.7c-.1-.1,0-.2.2-.4a.5.5,0,0,0,.3-.4c-.1-.1.1-.3.3-.6a1.4,1.4,0,0,0,.5-.9,1.2,1.2,0,0,1,.2-.7,5.2,5.2,0,0,0,1.2-1.9c.1-.2.2-.5.4-.6s.2-.2.1-.3,0-.3.2-.4.2-.2.1-.3a1.1,1.1,0,0,1,.3-.6l.4-.9a5.1,5.1,0,0,1,.5-1.2c.3-.4.5-.9.4-.9a.4.4,0,0,1,.2-.4c.1,0,.3-.5.5-.9a2.8,2.8,0,0,1,.5-1.1c.1-.2.2-.4.1-.5s0-.2.1-.3.2-.3.3-.5.4-1.2.6-1.3a.2.2,0,0,0,0-.3,1.7,1.7,0,0,1,.2-.5,3.2,3.2,0,0,0,.5-1.4c.2-.5.4-1.1.5-1.1a.4.4,0,0,0,.1-.3c-.1-.1,0-.3.1-.5a.8.8,0,0,0,.2-.8.6.6,0,0,1,.1-.6,4,4,0,0,0,.7-1.8,14.3,14.3,0,0,1,.5-1.7c.2-.2,2.8-11.6,2.8-12.8s.2-1.3.3-1.7.1-1.1.2-1.5a10,10,0,0,1,.2-1.6c.1-.4.2-.8.1-.9s0-.5,0-.9a1.6,1.6,0,0,0,0-1,1.5,1.5,0,0,1,.2-.8,1.3,1.3,0,0,0,0-.9,1.5,1.5,0,0,1,.1-.9,1.3,1.3,0,0,0,0-.9c-.1-.2-.1-.3,0-.4s.1-.5.1-.9a3.1,3.1,0,0,1,0-1c.1,0,.1-.2.1-.4a4.5,4.5,0,0,1-.1-1.6v-3.3c0-.4-.1-.8-.1-1.1s0-.4.1-.4a.6.6,0,0,0-.1-.4,5.6,5.6,0,0,1-.1-.7,5.2,5.2,0,0,0-.2-2.2.3.3,0,0,1,0-.4c.1,0,.1-.2,0-.4a.3.3,0,0,1,0-.4c.1,0,.1-.3,0-.6s-.1-.6,0-.6a.2.2,0,0,0,0-.3l-.4-2.2a8.3,8.3,0,0,0-.4-2.2c-.1-.2-.2-.4-.1-.4a8.6,8.6,0,0,0-.3-2.7c-.1-.3-.1-.8-.2-1.2a2.4,2.4,0,0,0-.2-.9c-.1-.2-.2-.3-.1-.4s0-.7-.3-1.5a9,9,0,0,1-.3-1.5c.1,0,.1-.3-.1-.6a15.8,15.8,0,0,1-.8-2.6c.1-.1,0-.4-.1-.7a25.5,25.5,0,0,1-.8-2.6,11.4,11.4,0,0,0-1-3c-.2-.4-.3-.8-.2-.9s-.7-2-1.2-3.2a2.6,2.6,0,0,1-.4-1,26.7,26.7,0,0,0-2-4.6c-.3-.4-.4-.8-.3-.8a10.9,10.9,0,0,0-1.2-2.5,7.9,7.9,0,0,1-1.2-2.5c.1-.2-9.9-15.3-12.6-19a6.8,6.8,0,0,0-1.4-1.5,13.5,13.5,0,0,1-1.7-1.9,8.8,8.8,0,0,0-1.8-2.1,2.5,2.5,0,0,1-.9-.8,21.6,21.6,0,0,0-3.2-3.2c-.1,0-.3-.1-.4-.4a27.4,27.4,0,0,0-3-2.8,23.5,23.5,0,0,1-2.6-2.2,1.2,1.2,0,0,0-.6-.5,17.5,17.5,0,0,1-2.2-1.8c-.2-.3-.5-.4-.6-.3a.5.5,0,0,1-.4-.3,16,16,0,0,0-2.5-1.9l-1.3-.9-.9-.5c-.1.1-.2,0-.4-.3a13.8,13.8,0,0,0-3.2-2.1l-.8-.6c-.1-.1-.2-.2-.4-.1h-.3a5.1,5.1,0,0,0-1.8-1.1l-.7-.4a.9.9,0,0,0-.6-.4c-.1.1-.3,0-.4-.2l-.5-.3c-.1.1-.3-.1-.6-.3s-.6-.5-.7-.4-.3-.1-.4-.3-.3-.3-.4-.2l-.6-.3a4.6,4.6,0,0,0-1-.5,1.4,1.4,0,0,1-.7-.2,30.2,30.2,0,0,0-3.6-1.8,1.1,1.1,0,0,1-.6-.3c-.2-.2-.5-.3-.6-.2s-.2,0-.3-.2-.3-.2-.4-.1a1.1,1.1,0,0,1-.6-.3l-.6-.3H173a.9.9,0,0,0-.5-.3c-1-.3-1.3-.4-1.4-.6h-.3c-.1.1-.5,0-.9-.2a8.1,8.1,0,0,0-2.4-.9l-.9-.3-1.1-.4c-.5-.2-1-.3-1-.4l-1.2-.4-2.2-.6-1.8-.4c-.4-.1-.8-.2-.8-.3s-12.7-2.7-13.2-2.6a.8.8,0,0,1-.8-.2h-2.4c-.1.1-.5,0-1-.1H140a3.2,3.2,0,0,1-1.3-.1L137.5.5h-4.1a1.6,1.6,0,0,0-1,0h-.6a1,1,0,0,0-.8-.1,6.7,6.7,0,0,1-2,0h-3.6a2.1,2.1,0,0,0-1.1,0h-.6c-.1-.1-.2-.1-.4,0h-.6a.8.8,0,0,0-.8.1h-1.3c-.1-.1-.4,0-.8.1a2.9,2.9,0,0,1-1.3.1h-1.7c-.1-.1-.3-.1-.5.1a.4.4,0,0,1-.5,0c0-.1-.5,0-.9.2s-.9.3-1,.2h-.4a.3.3,0,0,1-.4,0h-.8c-.4.2-.8.3-.8.2a4.4,4.4,0,0,0-2,.3h-.7a.5.5,0,0,0-.6.1c-.3.2-.5.2-.6.1s-.5,0-1,.2-1,.4-1.1.3a4.9,4.9,0,0,0-2.1.4c-.5.2-.9.3-.9.2s-.4,0-.6.1-.5.3-.6.2-.6,0-1.1.3-1.1.4-1.2.3-.3-.1-.5.1-.6.2-.6.1-.7.1-1.4.4a3,3,0,0,1-1.3.5c0-.1-.3,0-.6.2h-.7a5.3,5.3,0,0,0-1.5.6c-.8.4-1.5.6-1.5.5s-.4,0-.8.3-.7.3-.8.2a4.4,4.4,0,0,0-1.7.7,4.1,4.1,0,0,1-1.7.6c0-.1-.5.1-1,.4l-1.1.5-2.4,1a10.9,10.9,0,0,1-2.5,1.2c-.4-.2-21.8,13.1-21.8,13.5s-.8.9-2.1,1.8l-2.1,1.7c0,.2-.3.5-.7.7s-.7.6-.6.7l-1.4,1.3a10.8,10.8,0,0,0-1.5,1.2c.1.1-.1.4-.5.6s-.6.5-.6.6-.5.7-1.2,1.1-1.1,1-1,1.1-.1.3-.3.5-.5.3-.4.4a5.1,5.1,0,0,1-.9,1,2.8,2.8,0,0,0-1,1c.1.1-.1.3-.4.5s-.5.4-.5.5-.2.5-.6.9a2.1,2.1,0,0,0-.7.8c.1,0-.1.3-.3.4s-.5.4-.4.5-.3.5-.7.8-.9.8-.8.9-.6,1.1-1.2,1.7a1.8,1.8,0,0,0-.5.7c0,.1-.2.3-.4.5s-.3.3-.2.4a1.5,1.5,0,0,1-.6.7,1.6,1.6,0,0,0-.6.8c.1,0,0,.2-.1.3s-.3.2-.2.3a1.8,1.8,0,0,1-.5.7c-.3.3-.5.6-.4.7a.4.4,0,0,1-.2.4,16.8,16.8,0,0,0-2.3,3.8q0,.1-.3.3c-.1.1-.2.3-.1.4a1.8,1.8,0,0,1-.5.6c-.3.3-.5.7-.4.8l-.2.3c-.2.1-.2.2-.2.3s-.1.4-.3.6-.3.5-.2.6a.5.5,0,0,1-.3.4.5.5,0,0,0-.3.4c.1.1,0,.3-.2.5a3.1,3.1,0,0,0-.5,1,2.6,2.6,0,0,1-.5.9c-.2.3-.3.5-.2.6s0,.2-.2.3-.2.3-.1.4,0,.3-.2.3l-.4.6a4.4,4.4,0,0,1-.8,1.7.9.9,0,0,0-.2.8.8.8,0,0,1-.2.5,2.6,2.6,0,0,0-.4.9,2.8,2.8,0,0,1-.5,1.1c-.2.2-.3.4-.2.5a.2.2,0,0,1-.1.3l-.3.5a3.7,3.7,0,0,1-.4,1.1l-.4,1.5c-.1.5-.3.9-.4.9a3.4,3.4,0,0,0-.4,1c-.1.5-.2,1-.3,1a2.2,2.2,0,0,0-.3.8,3,3,0,0,1-.3.9c-.1,0-.1.3-.1.5a.6.6,0,0,1-.1.6c-.4.2-3.3,13.7-3.2,14.3a1.1,1.1,0,0,1-.1.8c-.2.2-.3.4-.2.4a7.9,7.9,0,0,1-.3,2.7,2.2,2.2,0,0,0,0,1.2c.1.2,0,.5-.1.9a1.5,1.5,0,0,0-.1.9,1.6,1.6,0,0,1,0,1,7,7,0,0,0-.2,2.7.5.5,0,0,1,.1.3,1.2,1.2,0,0,0-.1.9,2.5,2.5,0,0,1-.1,1v1.9a8.2,8.2,0,0,1-.1,2,1,1,0,0,0,.1.4c.1.1.1.3,0,.3a.6.6,0,0,0,0,.6c0,.3.1.6,0,.7a5.1,5.1,0,0,0,.1,1,6.1,6.1,0,0,1,0,2,4.1,4.1,0,0,0,.2.7,5.6,5.6,0,0,0,.1.7,2.7,2.7,0,0,0,.1,1.8.8.8,0,0,1,.1.4,3.5,3.5,0,0,0,.2,2c.1.2.1.3,0,.4s0,.5.1,1.1a5.2,5.2,0,0,0,.2,1.4,1.9,1.9,0,0,0,.2.7c.1.1.1.3,0,.3s-.1.4.1.8a.8.8,0,0,1,0,.7,1.1,1.1,0,0,0,.1.5c.1.1.2.4.1.5a2.9,2.9,0,0,0,.3.9c.1.4.2.8.1.8a.5.5,0,0,0,.1.6c.2.3.2.5.1.6s0,.4.2.9.3.8.2.9,0,.3.1.5.3.6.2.7a4.3,4.3,0,0,0,.3,1c.2.4.3.8.2.9s0,.3.1.6a10.3,10.3,0,0,1,.9,2.9c-.1.1.1.6.9,2.5s.4,1.3.4,1.4a2.5,2.5,0,0,0,.2.7c.2.2.3.5.2.6s.2.8.6,1.5.7,1.4.6,1.5,0,.4.3.8a2,2,0,0,1,.4.9,3.5,3.5,0,0,0,.7,1.7,9.9,9.9,0,0,1,.8,1.8c-.1.1.2.7.5,1.3l1.2,2.4c1.9,3.9,15.6,23.9,16.6,24.1a3.9,3.9,0,0,1,.8.9c.4.5.7.9.8.8l1.4,1.4c.7.9,1.3,1.6,1.5,1.6s.4.3.7.7.5.7.6.6.6.4,1.1,1a3.7,3.7,0,0,0,1.1,1c.1-.1.4.1.6.5s.5.6.6.5.4.2.6.5a6.5,6.5,0,0,0,1.2,1.1l1,.9.3.2c.1-.1.6.2,1,.7s.8.8.9.7.3.1.4.4.4.4.5.3a1.3,1.3,0,0,1,.7.4c.8.9.8,1.1,1.1.9s-.3-1.7-.6-1.5-.3-.1-.5-.4-.4-.4-.4-.3a3,3,0,0,1-1-.7,2.5,2.5,0,0,0-.9-.8c-.2,0-.4-.2-.6-.5s-.3-.4-.4-.3a3.2,3.2,0,0,1-1.2-1.1,4.6,4.6,0,0,0-1.2-1.1c0,.1-.3-.1-.5-.5l-.7-.6a7,7,0,0,1-1.3-1.3c-.6-.7-1.1-1.2-1.2-1.1l-.8-.8a2.4,2.4,0,0,0-.8-.9c-.1.1-.9-.9-1.8-2a12.5,12.5,0,0,0-1.8-2.1c-.1.1-.7-.7-1.4-1.7a5.7,5.7,0,0,0-1.4-1.7c-.1.1-1.5-1.7-3.8-5.2s-3.5-5.3-3.4-5.4-.3-.8-.9-1.7-1.1-1.7-1-1.9a9.3,9.3,0,0,0-1.2-2.4,14.5,14.5,0,0,1-1.3-2.5c.1-.1-.1-.5-.4-1s-.5-.8-.4-.9-.2-.8-.7-1.7a4.4,4.4,0,0,1-.7-1.7,1.2,1.2,0,0,0-.2-.7,1.7,1.7,0,0,1-.3-.7c.1-.1-.2-.8-.6-1.5s-.6-1.3-.5-1.4a1.2,1.2,0,0,0-.2-.7c-.2-.2-.2-.5-.1-.5s-.1-.7-.5-1.3-.5-1.2-.4-1.3,0-.3-.1-.5-.3-.5-.2-.6,0-.5-.3-1.1-.4-1-.3-1.1,0-.3-.1-.5-.3-.5-.2-.6,0-.5-.2-1-.4-.9-.3-1,.1-.2,0-.4-.2-.5-.1-.5,0-.5-.3-1-.3-1-.2-1,.1-.3-.1-.5-.2-.4-.1-.5a3.9,3.9,0,0,0-.1-.9c-.2-.3-.2-.6-.1-.7s0-.3-.1-.5-.1-.4,0-.4,0-.5-.2-.9-.3-.9-.2-.9,0-.3-.1-.4-.1-.3,0-.4.1-.4-.1-.8a2,2,0,0,1-.2-.8,1.3,1.3,0,0,0,.1-1,2,2,0,0,1,.1-.9c.1,0,.1-.2,0-.3a1.3,1.3,0,0,1,0-.9,1.7,1.7,0,0,0,0-1c-.1-.2,0-.4.1-.4a7.2,7.2,0,0,0,.6-1.7,5.9,5.9,0,0,1,.8-1.9,1.1,1.1,0,0,0,.3-.6,7.9,7.9,0,0,1,2.2-1.6c1.4-.9,2.3-1.5,2.2-1.7a11.7,11.7,0,0,1,2.6-1.8,10.6,10.6,0,0,1,2.9-1.6h.8c0,.1.4.1.8-.1s.8-.2.9-.1H39a42.6,42.6,0,0,1,6.2,1.3l.9.3.9.4a.2.2,0,0,0,.3,0,.6.6,0,0,1,.5.2l.9.4,1.3.6,1,.4c.1-.1.3,0,.4.1a3.9,3.9,0,0,0,2,1.1l.6.4c.1.1.2.2.3.1l.5.3c.1.2.3.3.4.2l.5.3a2.8,2.8,0,0,0,1.1.5,2.4,2.4,0,0,1,1.1.6,1.3,1.3,0,0,0,.7.4c.1-.1.2,0,.3.1s.3.3.4.2l.5.3,1,.5a1.6,1.6,0,0,1,.9.3c0,.2.6.5,1.2.7l1.3.7c.1.1.2.2.3.1l.5.3c.1.2.3.3.4.2a.9.9,0,0,1,.6.4c.3.2.6.4.7.3a.5.5,0,0,1,.4.3c.2.2.3.3.4.2a1.3,1.3,0,0,1,.7.4,1.3,1.3,0,0,0,.7.4c.1-.1.3.1.4.3s.4.4.5.3a2.5,2.5,0,0,1,.9.8l1,.8a1.2,1.2,0,0,1,.6.5l.6.5c.5.1,3.7,4.9,3.5,5.1s.2.7.6,1.4.7,1.2.6,1.2a5.2,5.2,0,0,0,.9,2l1,2c-.1.1.1.5.4,1s.5,1,.4,1a5,5,0,0,0,.7,1.6c.4.8.7,1.5.6,1.6a2,2,0,0,0,.3.8,1.8,1.8,0,0,1,.4.8c-.1.2.2.9.6,1.6s.6,1.4.5,1.5.1.3.3.7a2.6,2.6,0,0,1,.3.7c-.1.1.1.7.5,1.4s.5,1.3.4,1.4.1.3.3.7a2.6,2.6,0,0,1,.3.7c-.1.1.1.7.4,1.3s.5,1.2.4,1.3,0,.3.2.6.3.6.2.7.1.6.4,1.2.6,1.3.5,1.3-.1.3.8,2.5.5,1.3.4,1.4,0,.2.2.5l.2.6c-.1.1.1.7.4,1.3s.5,1.1.4,1.2-.1.3.1.6c1,2.5,1.1,3,1,3.1s0,.3.1.5a.7.7,0,0,1,.2.7,2.9,2.9,0,0,0,.4,1.1c.3.6.4,1.1.3,1.1s0,.4.2.6a2,2,0,0,1,.3.8c-.2.6,1.1,2.8,1.5,2.5h.4c.1.1.4.1.9-.1s.7-.2.8-.1H97a1.7,1.7,0,0,0,.8-.2c.4-.1.8-.2.9-.1h1.6c.4-.2.8-.3.9-.2h.4a.3.3,0,0,1,.4,0c0,.1.4.1.8-.1a1,1,0,0,1,.9-.1h1.5a2.5,2.5,0,0,1,1.2-.1h1.2a.8.8,0,0,1,.7,0h.8c0,.1.2.1.4,0a1.1,1.1,0,0,1,.8-.1H112a1.7,1.7,0,0,1,1.2-.1h4.1c0,.1.5.1,1,.1a3.8,3.8,0,0,1,1.5,0H122a.8.8,0,0,0,.7,0h.6a.6.6,0,0,0,.6,0h.6a.9.9,0,0,0,.7,0c.2-.1.5-.2.7,0h2.8a.9.9,0,0,0,.7-.1h1.7c.7,0,1.4,0,1.4.1h1.3a.3.3,0,0,0,.4,0h.4a.6.6,0,0,0,.6,0,1.7,1.7,0,0,1,1.2.1h1a.6.6,0,0,1,.7.1.7.7,0,0,0,.6.1h6.1a1.6,1.6,0,0,0,1,0h.5c.2.2.4.1.7,0a.6.6,0,0,1,.7.1,1.1,1.1,0,0,0,.8.1,10,10,0,0,1,3.8.8c.2.2.5.3.6.2s.2,0,.3.2.3.2.4.1a1.6,1.6,0,0,1,.8.6c.3.3.7.6.8.5s.2.1.4.3.3.3.4.2a2.5,2.5,0,0,1,.9.8c.5.5.9.9,1,.8s.3.1.5.4.4.4.5.3a3.7,3.7,0,0,1,1.1,1l1.1,1.1c.2,0,.4.2.6.5s.5.5.6.4l1.1,1.1,1.2,1.2c.2,0,.5.3.8.7s.5.7.6.6.7.5,1.3,1.3l.8.9h5.5c-.2-.1-1.9-2-4.1-4.6a4.4,4.4,0,0,0-1.1-1c-.6-.2-8.5-12-8.3-12.3s0-.4-.2-.7-.2-1.1.3-3.4.7-3.6.8-4.4,1.8-8.7,2.3-10.3.7-2.6,1.2-4.4.9-3.8,1.1-4.4.6-1.9.4-2.1l.2-.5a.6.6,0,0,0,.2-.7.8.8,0,0,1,.2-.8,14.3,14.3,0,0,0,.8-2.5c.3-1.3.6-2.3.6-2.4a8.9,8.9,0,0,0,.7-2.1,6.8,6.8,0,0,1,.6-2.2,3,3,0,0,0,.3-.9,6.8,6.8,0,0,1,.3-1.2c0-.2.1-.6.1-.8a2.8,2.8,0,0,1,.5-1.2,2.2,2.2,0,0,0,.3-.8,1.6,1.6,0,0,1,.3-.9c.1,0,.2-.3.2-.5a.8.8,0,0,1,.4-.6c.2-.1.3-.3.2-.4a.4.4,0,0,1,.2-.4c.1-.1.2-.2.1-.3a1.8,1.8,0,0,1,.5-.7,1.8,1.8,0,0,0,.5-.7c-.1-.1.1-.3.3-.4s.5-.5.5-.6.6-.7,1.2-1.2a4.4,4.4,0,0,0,1.2-1.1,89.3,89.3,0,0,1,9.8-6.1l3.5-1.8,3.5-1.8a6.5,6.5,0,0,0,2-1,5,5,0,0,1,1.8-.9,49.6,49.6,0,0,0,5.7-3.1,54,54,0,0,1,5.6-3.1c.1.1.3,0,.6-.2s.5-.2.6-.1.4.1.7-.1h.8c.1.1.2.1.4,0a10.2,10.2,0,0,1,4,.8l.6.2c.1-.1.2,0,.3.1s.3.3.4.2.3.1.6.3a2.1,2.1,0,0,0,1,.6l1,.5.6.2c.1-.1.3,0,.4.1s.2.2.3.2.4,0,.6.2.5.4.6.3a.4.4,0,0,1,.4.2l.3.2c.1-.1.4,0,.6.2s.5.4.6.3.3,0,.5.2a.5.5,0,0,0,.4.3c.1-.1.3.1.6.3s.5.3.6.2.2,0,.3.2.3.2.4.1l.7.5c.3.3.7.5.8.4l.3.2a.4.4,0,0,0,.4.2c0-.1.3,0,.5.2s.5.4.7.3.2,0,.3.2.3.2.4.1l.7.5c.3.3.6.5.7.4a.4.4,0,0,1,.4.2c.1.1.2.2.3.1l.5.2a.7.7,0,0,0,.5.4c.4.1.6,1.2.4,1.9v1a.6.6,0,0,1,0,.6c-.1,0-.1.2,0,.3a1.1,1.1,0,0,1,0,.6,10.3,10.3,0,0,0-.1,1.3c.1,0,0,.4,0,.9a3.9,3.9,0,0,0-.1.9c.1.1,0,.5-.1.9a3.2,3.2,0,0,0-.1.8.7.7,0,0,1,.1.5c-.2.9-.2,1.3-.1,1.4s-.1.7-.3,1.6a3.8,3.8,0,0,0-.2,1.6,8.8,8.8,0,0,1-.2,1.8c-.2.8-.4,2.1-.5,2.8s-.3,1.6-.4,2.2-.1.5-.2.7-.1.6-.1.8a1.9,1.9,0,0,0-.2.7c0,.2-.2.7-.3,1.2a28.3,28.3,0,0,0-.8,3,13.2,13.2,0,0,1-.7,2.3,4.8,4.8,0,0,0-.5,1.3,3.9,3.9,0,0,1-.4,1.3c-.1.1-.2.2-.1.3a.6.6,0,0,1-.2.5,1.1,1.1,0,0,0-.2.8.6.6,0,0,1-.1.6,2.6,2.6,0,0,0-.4.9c-.1.4-.3.8-.4.8a3,3,0,0,0-.3.9c-.1.4-.3.8-.4.8a9.6,9.6,0,0,0-.8,2.2,1,1,0,0,1-.4.7l-.2.3c.1.1,0,.4-.2.6s-.4.5-.3.5a8.7,8.7,0,0,1-.5,1.3c-.4.6-.6,1.1-.5,1.2a.9.9,0,0,1-.3.5q-.4.5-.3.6a.4.4,0,0,1-.2.4l-.2.3c.1.1,0,.4-.3.6a4.1,4.1,0,0,0-.5.9,2,2,0,0,1-.6,1.1l-.4.6c.1.1,0,.3-.1.4s-.3.2-.2.3a.2.2,0,0,1-.1.3l-1.2,1.8a2.2,2.2,0,0,1-.6,1c-.3.5-.5.9-.4,1l-.6.7a1.6,1.6,0,0,0-.6.8c.1.1,0,.2-.1.3s-.3.3-.2.4,0,.2-.2.4a1.9,1.9,0,0,0-.7.8l-.6.7a.4.4,0,0,0-.2.4c.1.1-.1.4-.5.7a2.1,2.1,0,0,0-.6.8c.1.1,0,.2-.2.4s-.4.3-.3.4-.1.3-.3.4l-.8.9c-.2.3-.4.7-.6.8s-.2.2-.1.3a2.5,2.5,0,0,1-.8.9c-.5.4-.8.8-.7.8s-.1.3-.4.5-.4.4-.3.5a3.4,3.4,0,0,1-.9.9c-.5.4-.9.8-.8.9s-.2.3-.5.5-.5.5-.4.6a4.9,4.9,0,0,1-1,.9,6.6,6.6,0,0,0-1,1.1,1.2,1.2,0,0,1-.5.6l-.6.5c0,.2-.5.7-1.2,1.2s-1.2,1-1.1,1.1-.3.4-.8.7-.8.6-.7.7-.5.6-1.3,1.2-4.1,2.8-4.2,3.5M40.9,55.9c.2-.2.3-.5.2-.6s0-.2.2-.3.2-.3.1-.4a1.8,1.8,0,0,1,.5-.7l.6-.7a.9.9,0,0,1,.3-.5c.2-.1.4-.3.3-.4s.2-.4.6-.8.8-.7.8-.9.2-.3.4-.4.3-.3.2-.4.2-.5.7-.8a3,3,0,0,0,.7-.9.8.8,0,0,1,.5-.5c.2-.2.4-.4.4-.5a2.8,2.8,0,0,1,1-1c.5-.4.9-.9.8-.9s.1-.4.4-.5.6-.5.6-.7a5.1,5.1,0,0,1,1.1-1.1c.6-.5,1.1-.9,1-1s.2-.3.6-.6.6-.5.5-.5l1.3-1.3c.8-.6,1.4-1.1,1.3-1.2a2.3,2.3,0,0,1,1-.8c.5-.4,1-.7.9-.8s3-2.6,6.1-4.8c.9-.6,1.6-1.2,1.5-1.3A53.8,53.8,0,0,1,71,27a41.7,41.7,0,0,1,5.6-3.3c.1.1.9-.3,1.9-.9a41.9,41.9,0,0,1,6.6-3.1c.9-.1.9-.1.7.5a2.2,2.2,0,0,1-.8,1c-.5.4-.8.7-.7.8s-.2.4-.6.6-.7.6-.7.7a10.1,10.1,0,0,1-1.9,1.6,10.1,10.1,0,0,0-1.9,1.6,8,8,0,0,1-1.4,1.1c-.8.5-1.4.9-1.3,1a61.5,61.5,0,0,1-5.6,3.9,67.2,67.2,0,0,0-5.7,4c.1.1-.5.5-1.3,1l-1.3,1a8.4,8.4,0,0,1-2.2,1.8A23.3,23.3,0,0,0,58,42.2c0,.2-.5.6-1,.9s-1,.7-.9.8-.8.8-1.9,1.6-1.9,1.5-1.8,1.6-.4.4-1,.8a3.2,3.2,0,0,0-1,.8c0,.2-.8.8-1.8,1.6l-1.8,1.5c.1.1-.4.5-.9.8s-.8.6-.8.8a16.3,16.3,0,0,1-3.7,2.5C40.7,56.3,40.6,56.3,40.9,55.9ZM120.4,51a1.3,1.3,0,0,1,0,.9c-.1.3-.2.7-.1.8a3.9,3.9,0,0,1-.1.9,1.3,1.3,0,0,0,0,.9,4.6,4.6,0,0,1-.1,1,1.7,1.7,0,0,0,0,1,.4.4,0,0,1,0,.5,1,1,0,0,0-.1.8c.1.3.1.7,0,.7a.4.4,0,0,0-.1.5,3.3,3.3,0,0,1,0,1,5.3,5.3,0,0,0-.1,1.3,17.9,17.9,0,0,1-.2,2.4.8.8,0,0,0,0,.7,1.3,1.3,0,0,1,0,.9c-.1.4-.2.8-.1.9v.9c-.1.4-.2.8-.1.9a5.1,5.1,0,0,1-.1,1l-.2,1a2.5,2.5,0,0,1,0,1.3c-.1.6-.2,1.1-.1,1.2l-.2,1.4c-.5,2.9-.9,5.3-1,6.1a6.8,6.8,0,0,1-.7,2.8c-.1.4-.3,1.2-.4,1.8a5.2,5.2,0,0,1-.5,1.2.2.2,0,0,0-.1.3c.1.1,0,.3-.2.5a1.5,1.5,0,0,0-.4.9,3.4,3.4,0,0,1-.7,1.1c-.4.3-.6.6-.5.7s-.2.4-.7.6-.7.6-.6.7l-1.4,1.2c-.8.7-1.5,1.2-1.4,1.3s-.2.4-.6.7-.8.5-.7.6-.6.7-1.4,1.3-1.5,1.2-1.4,1.3-.4.4-1,.8a4,4,0,0,0-1.1.9,8,8,0,0,1-2,1.7l-2,1.6c0,.2-.5.6-1.1,1a2.3,2.3,0,0,0-1,.8,17.7,17.7,0,0,1-3.1,2.4,21.9,21.9,0,0,0-3.1,2.3c.1.1-.7.7-1.6,1.3s-1.8,1.2-1.7,1.3S76.5,119,76,118.9a.9.9,0,0,0-.7.1H74.2a.8.8,0,0,1-.7,0h-.4a25.4,25.4,0,0,1-4.8-.9c0-.1-.4-.3-.8-.3l-.9-.3-1.3-.5c-.2,0-.5-.1-.5-.3h-.3a1.1,1.1,0,0,1-.6-.3,1.1,1.1,0,0,0-.6-.3c-.1.1-.3,0-.4-.1s-.3-.3-.4-.2-.3,0-.6-.3-.5-.3-.6-.2l-.4-.3c-.1-.2-.3-.3-.4-.2l-.6-.3-.6-.3c-.1.1-.2,0-.3-.1s-.3-.3-.4-.2a.2.2,0,0,1-.3-.1,6.1,6.1,0,0,0-2.1-1.2l-.6-.3c-.1-.2-.2-.2-.3-.2s-.3,0-.4-.1a.4.4,0,0,0-.4-.2c-.1.1-.3,0-.4-.1a3.1,3.1,0,0,0-1.7-.9l-.6-.4c-.3-.2-.5-.4-.6-.3l-.5-.3c-.1-.2-.3-.3-.4-.2l-.6-.3-.6-.3c-.1.1-.2,0-.3-.1s-.3-.3-.4-.2a17.9,17.9,0,0,1-3.2-1.9c-.1-.2-.3-.3-.4-.2s-.2,0-.3-.2-.3-.2-.4-.1l-1-.9c-.5-.6-1-1-1.1-.9s-.4-.4-.8-.9-.8-1-.9-.9-.9-.9-.7-1.2.2-.6,0-1-.1-.9,0-.9.1-.2,0-.4a.3.3,0,0,1,0-.4c.1,0,.1-.3,0-.6s-.1-.6,0-.6a1.1,1.1,0,0,0-.1-.5c-.2-.2-.2-.4-.1-.5s.1-.3,0-.6-.1-.6,0-.6a.3.3,0,0,0,0-.4c-.1-.2-.1-.3,0-.4s0-.3-.1-.6a.8.8,0,0,1,0-.7c.1,0,.1-.2,0-.4s-.1-.3,0-.3.1-.4.1-.6a1.7,1.7,0,0,1,0-1v-1a.6.6,0,0,1,0-.6c.1,0,.1-.2,0-.3s-.1-.4,0-.4a.6.6,0,0,0,0-.6,1.7,1.7,0,0,1,0-1,.8.8,0,0,0,0-.7,4.6,4.6,0,0,1,.1-1,1.3,1.3,0,0,0,0-.9,6.7,6.7,0,0,1,.2-2.2v-.7a1.1,1.1,0,0,1,0-.8,9,9,0,0,0,.1-2.2c-.1-.1,0-.5.1-.9a1.7,1.7,0,0,0,0-1,.8.8,0,0,1,0-.7c.1-.3.2-.6.1-.7a1.4,1.4,0,0,1,0-.9,4.1,4.1,0,0,0,.1-1,.4.4,0,0,1,0-.5c.1-.1.1-.4.1-.5s-.1-.4-.1-.6.1-.6-.1-.7a.6.6,0,0,1,0-.6,1.3,1.3,0,0,0,.2-.9,5.4,5.4,0,0,1,.1-2.5,3.2,3.2,0,0,0,0-1.4v-.5a5.8,5.8,0,0,0,.9-2.4,3.4,3.4,0,0,1,.6-1.2,1.1,1.1,0,0,0,.3-.6c-.1-.1,0-.2.3-.4s.3-.3.2-.4.2-.4.6-.7.6-.7.5-.8.2-.3.6-.6.6-.4.5-.5A5.9,5.9,0,0,1,46,56.5a6.9,6.9,0,0,0,1.4-1.2c0-.2.2-.4.6-.7s.6-.4.5-.5a7,7,0,0,1,1.7-1.5c1-.7,1.8-1.4,1.7-1.5s.3-.4.8-.7a2.7,2.7,0,0,0,.9-.7,10.3,10.3,0,0,1,2.6-2.1,16,16,0,0,0,2.6-2A12.4,12.4,0,0,1,61,43.9a17.1,17.1,0,0,0,2.4-1.6,36.7,36.7,0,0,1,5.4-3.8,57.7,57.7,0,0,0,5.4-3.8c-.1-.3,8.3-5.5,8.4-5.3s.6-.1,1.3-.4,1.2-.5,1.3-.4.4,0,.7-.2.5-.2.5-.1h.4c.7-.5,5.4,1.3,6,2.3s.3.2.4.1a.9.9,0,0,1,.6.4c.3.2.6.4.7.3a.5.5,0,0,1,.4.3c.2.2.3.3.4.2l1.2.7c.5.5,1.1.8,1.2.7s.2,0,.3.2a4.6,4.6,0,0,0,1.8,1,.5.5,0,0,1,.4.3,5.7,5.7,0,0,0,2,1.3l.8.6c.3.4.6.6.7.5s.3.1.5.3.3.3.4.2.3,0,.4.2a3.8,3.8,0,0,0,1.3,1,7.4,7.4,0,0,1,1.6,1.1l.7.5a.5.5,0,0,1,.5.3c.1.2.3.3.4.2l.5.3a1.8,1.8,0,0,0,.9.8c.3.2.7.4.8.6s.2.2.3.1a1.6,1.6,0,0,1,.8.6c.3.3.7.6.8.5s.3.1.5.3.4.4.5.4.4.2.8.6l.9.7c.2,0,.4.2.6.5s.3.4.4.3.5.2.9.6.7.8.9.8.3.1.5.3.3.3.4.2.6.6.5,1.3A4.1,4.1,0,0,0,120.4,51Zm87.3,37c.1.1.1.4.1.6s-.2,1.2-.1,1.3a3.9,3.9,0,0,1-.1.9c-.1.4-.2.7-.1.8a11.1,11.1,0,0,1-.9,4,1.1,1.1,0,0,0-.3.6,1.8,1.8,0,0,1-.4,1,.9.9,0,0,0-.4.6c.1.1,0,.3-.2.4s-.4.3-.3.4-.8.8-2.2,1.7a8.8,8.8,0,0,1-2.5,1.3c-.1-.1-.9.2-2,1l-2.3,1.2a23,23,0,0,0-3.5,1.7,13.4,13.4,0,0,1-3.2,1.6c0-.1-.5.1-1.1.5s-1.1.6-1.2.5l-2,.8a6,6,0,0,1-1.9.8c-.1-.1-.4,0-.8.3s-.7.3-.7.2-.6.1-1.3.4-1.1.4-1.2.3-.3,0-.6.1-.5.3-.6.2l-1.2.3c-.5.2-1,.4-1,.3h-.4c-.2.1-.3.1-.4,0s-.4,0-.8.1-.8.2-.9.1h-.8c-.1-.1-.3,0-.5.1h-.8a.6.6,0,0,0-.6,0H170c-.2-.2-.5-.1-.7,0a.6.6,0,0,1-.7-.1l-.5-.2a9.1,9.1,0,0,1-3-.5h-.8l-1.3-.5c-.1-.2-.2-.2-.3-.1l-.6-.3a1.1,1.1,0,0,0-.6-.3c-.1.1-.3,0-.4-.1s-.2-.2-.3-.2-.5-.1-.8-.4l-.7-.5c-.1.1-.2,0-.3-.1s-.3-.3-.4-.2l-.7-.5c-.3-.3-.6-.5-.7-.4s-.3,0-.4-.2-.3-.2-.4-.1l-.7-.5c-.3-.3-.6-.5-.7-.4s-.3,0-.3-.2l-.8-.6-1.3-.8-.8-.3c-.1.1-.4-.2-.7-.5s-.6-.5-.7-.4-.2,0-.3-.2-.3-.2-.4-.1l-.8-.6c-.3-.3-.7-.6-.8-.5l-.4-.3c-.1-.2-.3-.3-.4-.2l-.6-.3c-.6-.6-1.6-1.2-1.7-1.1l-.7-.5c-.3-.3-.6-.5-.7-.4s-.3-.1-.5-.4-.4-.4-.5-.3-.4-.1-.7-.4-.6-.6-.7-.5-.3-.1-.5-.3-.4-.4-.5-.4-.5-.2-.8-.5a1.6,1.6,0,0,0-.8-.6c0,.1-.2,0-.3-.1a.4.4,0,0,0-.4-.2c0,.1-.4-.2-.8-.6l-.9-.7a.7.7,0,0,1-.5-.4c-.1-.2-.3-.3-.4-.2a2.1,2.1,0,0,1-.8-.6c-.3-.3-.7-.6-.8-.5s-.3-.1-.5-.3-.3-.5-.4-.4-.5-.1-.8-.5l-.9-.7a10.4,10.4,0,0,1-1.9-1.4,5,5,0,0,0-1.7-1.3,1.3,1.3,0,0,1-.7-.5,13.3,13.3,0,0,0-2.4-1.9c-.6-.4-1.9-2.3-1.7-2.5s.1-.4-.1-.7-.2-.4-.1-.5,0-.4-.1-.7-.2-.7-.1-.8.1-.2,0-.4-.2-.4-.1-.5a.6.6,0,0,0,0-.6.8.8,0,0,1,0-.7c.1,0,.1-.2,0-.4s-.1-.3,0-.3a.6.6,0,0,0,0-.6,1.7,1.7,0,0,1,0-1,1.7,1.7,0,0,0,0-1,.6.6,0,0,1,0-.6c.1,0,.1-.1.1-.2a1.7,1.7,0,0,1,0-1c.1-.4.1-.9,0-.9a3.9,3.9,0,0,1,.1-.9c.1-.4.2-.8.1-.8s0-.5.1-1.4,0-.4,0-.5a7.5,7.5,0,0,1,.1-1.2,3.9,3.9,0,0,0,.2-1.2,3.2,3.2,0,0,1,.1-1.3,5.3,5.3,0,0,0,.2-1.4.2.2,0,0,1,0-.3.7.7,0,0,0,.1-.5,1.1,1.1,0,0,1,.1-.8.8.8,0,0,0,.2-.8,5.4,5.4,0,0,1,.1-1.7,3.3,3.3,0,0,0,.2-1.5c0-.1.1-.8.2-1.7a4.9,4.9,0,0,0,.2-1.9.7.7,0,0,1,.2-.7,1.1,1.1,0,0,0,.1-.8,1,1,0,0,1,.2-.7c.2-.2.3-.4.2-.5s0-.5,0-.9a5.1,5.1,0,0,0,.1-1c-.2-.2,6.9-4.6,7.2-4.5s.8-.2,1.5-.7,1.4-.8,1.5-.7a12.3,12.3,0,0,0,2.9-1.4,10.2,10.2,0,0,1,2.8-1.3l1.1-.4,1-.5a6.2,6.2,0,0,0,2.1-.8,5.3,5.3,0,0,1,2.1-.9l1-.5,1-.4a4.8,4.8,0,0,0,2.1-.9l2.1-.9c.1.1.6-.1,1.2-.4a2.1,2.1,0,0,1,1-.5c.1.1.9-.2,2-.8a6.1,6.1,0,0,1,2-.8c0,.1.4,0,.7-.2s.7-.4.8-.3.5,0,.9-.2.9-.3,1-.2.3.1.5,0a.6.6,0,0,1,.6,0,.6.6,0,0,0,.6,0,.6.6,0,0,1,.8,0h.7a31.2,31.2,0,0,1,6.1,1.1,3.6,3.6,0,0,0,1.4.5l.4.2.9.3c.4.1.8.2.9.4l.4.2c.1-.1.4,0,.6.2a1.1,1.1,0,0,0,.6.3c.1-.1.2,0,.3.2s.3.2.4.1l.6.3a1.1,1.1,0,0,0,.6.3c.1-.1.3,0,.4.1s.2.2.3.2.4.1.7.4a1.9,1.9,0,0,0,.8.5c.1-.1.2,0,.3.1s.3.3.4.2.4.1.7.4.6.6.7.5.3.1.5.3.4.4.5.4.4.1.7.4l.7.5c.1-.1.3.1.5.3s.4.4.5.4.4.1.6.3a1.5,1.5,0,0,0,.8.5l.5.3a.5.5,0,0,0,.4.3c.1-.1.5.2.9.7l.9.7c.1-.1.3.1.4.3a1.2,1.2,0,0,0,.6.5,2.5,2.5,0,0,1,1,.8l.9.8c.2,0,.4.2.6.4a.7.7,0,0,0,.4.4c.1-.1.7.4,1.3,1.1s1.1,1.3,1.2,1.2.3.2.6.5.5.6.6.5,6,8.1,5.9,8.7a2.6,2.6,0,0,0,.3,1c.2.3.4.6.3.8a2.9,2.9,0,0,0,.4,1.1c.3.6.4,1.1.3,1.1s0,.3.1.6.3.5.2.6-.1.4.1.8a3.3,3.3,0,0,1,.3,1,4.6,4.6,0,0,0,.3,2c.1.1.1.3,0,.3s.1,1.8.3,2.1a.2.2,0,0,1-.1.3.3.3,0,0,0,0,.4c.1.2.1.4,0,.4a.8.8,0,0,0,0,.7.6.6,0,0,1,0,.6,1.3,1.3,0,0,0,.1.5c.2.1.2.4.1.4a.6.6,0,0,0,0,.6.8.8,0,0,1,0,.7c-.1,0-.1.2,0,.4a.3.3,0,0,1,0,.4c-.1,0-.1.2,0,.3a1.7,1.7,0,0,1,0,1,2.4,2.4,0,0,0,0,1.2q.1.5,0,.6c-.1,0-.1.2,0,.4s.1.3,0,.3a.8.8,0,0,0,0,.7.6.6,0,0,1,0,.6c-.1.1-.1.2,0,.4a.3.3,0,0,1,0,.4c-.1,0-.1.2,0,.4a.8.8,0,0,1,.1.8c0,.2,0,.5.1.6s.1.3,0,.4-.1.3,0,.6.1.6,0,.6a.3.3,0,0,0,0,.4c.1.2.1.4,0,.4a.8.8,0,0,0,0,.7.6.6,0,0,1,0,.6C207.6,87.7,207.6,87.9,207.7,88Zm7.1-34.9a1.7,1.7,0,0,1-1,0,2.6,2.6,0,0,0-1.2.1h-2.2a2.1,2.1,0,0,1-1.1,0h-.7a7.3,7.3,0,0,1-2.9-.7c-.1-.1-.3-.2-.4-.1a.5.5,0,0,1-.4-.3c-.1-.2-.3-.3-.4-.2s-1.4-1.2-3-3a2.1,2.1,0,0,0-.8-.6c-.1.1-.6-.4-1.1-1.1l-1.2-1.2a1,1,0,0,1-.7-.6c-.2-.3-.5-.6-.6-.5s-.6-.3-1.1-.9-1.9-1.8-2-1.7a2.5,2.5,0,0,1-.9-.8l-1-.8a.7.7,0,0,1-.5-.3.5.5,0,0,0-.4-.3c-.1.1-.4-.2-.8-.5s-.6-.6-.8-.6-.3,0-.4-.3-.4-.4-.5-.3L188,38a2.9,2.9,0,0,0-1.2-.7,2.9,2.9,0,0,1-1.1-.6q-.4-.5-.6-.3l-.4-.2a.4.4,0,0,0-.4-.2c-.1.1-.2,0-.3-.1a4.6,4.6,0,0,0-2.1-1.1l-.5-.4c-.1-.1-.3-.2-.4-.1a.5.5,0,0,1-.4-.3c-.2-.2-.3-.3-.4-.2a2.2,2.2,0,0,1-1-.4l-1.2-.5c-.2-.1-.5-.2-.6-.4s-.2-.2-.3-.1a.4.4,0,0,1-.4-.2c-.1-.1-.3-.2-.4-.1l-.6-.3a1.1,1.1,0,0,0-.6-.3c-.1.1-.3,0-.4-.2a.5.5,0,0,0-.4-.3c-.1.1-.4-.1-.6-.3s-.5-.3-.6-.2a.4.4,0,0,1-.4-.2c-.1-.1-.2-.2-.3-.1h-.3a6.5,6.5,0,0,0-1.9-1.1c-.1,0-.3,0-.3-.2l-1.1-.6-1.4-.8-.7-.5c-.2,0-.4-.2-.6-.4a.6.6,0,0,0-.5-.4c-.1.1-.6-.5-1.2-1.4a7.2,7.2,0,0,1-.9-1.6c.1-.1.1-.4-.1-.8l-.9-2c-.3-.7-.5-1.4-.4-1.4s0-.3-.1-.6-.3-.5-.2-.6l-.4-1.2c-.3-.6-.4-1-.3-1.1a2.5,2.5,0,0,1,1.2.2l1.2.5c.6.1,1.2.3,1.2.4l.9.3.8.2.5.3c1,.2,1.3.3,1.4.5h.3c.1-.1.3,0,.6.2a1.5,1.5,0,0,0,.9.4,1.5,1.5,0,0,1,.9.4c.2.2.5.3.6.2s.2,0,.3.2.3.2.4.1l.6.2a2.3,2.3,0,0,0,1,.5l1,.5c.2.2.4.3.5.2a.4.4,0,0,1,.4.2l.6.3.6.3a.5.5,0,0,0,.4.3c.1-.1.3,0,.4.1a.4.4,0,0,0,.4.2q.2-.1.6.3c.2.2.5.3.6.2s.2,0,.3.2.3.2.4.1l.7.5c.3.3.6.5.7.4a.4.4,0,0,1,.4.2l.3.2c.1-.1.5.1.8.4l.7.5c.1-.1.2,0,.3.1a.4.4,0,0,0,.4.2c.1-.1.4.1.7.4l.7.5c.1-.1.3,0,.4.1s.3.3.4.2.4.2.8.6l.8.7c.1-.1.3,0,.5.2a.5.5,0,0,0,.4.3,1,1,0,0,1,.7.5c.7.5,1.6,1.1,1.7,1a2.1,2.1,0,0,1,.8.7,2.1,2.1,0,0,0,.9.6c.1-.1.3.1.5.3s.3.4.4.4.5.2.9.7.9.8,1,.7a.8.8,0,0,1,.4.3c.2.3.4.5.6.5a2.5,2.5,0,0,1,.9.8c.4.5.9.8.9.7a1.2,1.2,0,0,1,.6.5q.4.6.6.6c.1-.1.6.4,1.1,1s1,1,1.1.9a1.1,1.1,0,0,1,.6.6c.3.3.5.6.6.5s.7.6,1.4,1.4a6.8,6.8,0,0,0,1.4,1.5c.1-.1.4.2.7.7a2.1,2.1,0,0,0,.8.7,12.9,12.9,0,0,1,1.8,2.1c1,1.3,1.8,2.3,1.9,2.2a7.1,7.1,0,0,1,1.7,2.2c1,1.3,1.6,2.2,1.7,2.1s.3,0,.4.1S215.1,53,214.8,53.1Z" transform="translate(0.4 -0.2)"/>
    <text class="cls-1" transform="translate(1.9 252.5) scale(0.9 1)" svgjs:data="{&quot;leading&quot;:&quot;1.3&quot;}">BB FC</text>
  </svg>
</svg>
